<svg version="1.1" id="Layer_1" xmlns="http://www.w3.org/2000/svg" xmlns:xlink="http://www.w3.org/1999/xlink" x="0px" y="0px"
	 width="100%" viewBox="0 0 496 496" enable-background="new 0 0 496 496" xml:space="preserve">
<path fill="#000000" opacity="1.000000" stroke="none" 
	d="
M67.056679,289.629364 
	C79.500320,285.785065 83.643364,280.232544 83.647682,267.701416 
	C83.656067,243.368942 83.487747,219.034607 83.761688,194.705185 
	C83.841331,187.631775 82.660004,182.030136 74.764015,180.194321 
	C75.832466,177.916199 77.542450,178.704193 78.840172,178.694016 
	C88.172562,178.620789 97.509048,178.802719 106.837250,178.593033 
	C110.588699,178.508728 112.372528,179.736984 113.623146,183.427002 
	C120.194916,202.817230 127.089844,222.097946 133.877975,241.414795 
	C134.141327,242.164246 134.459961,242.894257 135.119308,244.558090 
	C138.788040,233.942062 142.161713,224.118683 145.578308,214.310272 
	C149.191116,203.938568 152.974121,193.623627 156.407120,183.193176 
	C157.535126,179.765991 159.287323,178.563187 162.874222,178.586792 
	C184.537079,178.729370 206.202164,178.763214 227.864288,178.576172 
	C231.912064,178.541245 233.774780,179.937134 235.038773,183.703766 
	C241.023041,201.536560 247.254242,219.286545 253.413513,237.060486 
	C254.166916,239.234619 255.016754,241.375336 256.256317,244.694992 
	C258.989227,236.886307 261.374939,230.101608 263.738647,223.309219 
	C268.387177,209.951080 273.115784,196.619553 277.600189,183.206436 
	C278.728546,179.831421 280.405273,178.552109 284.044983,178.578888 
	C305.875244,178.739502 327.708008,178.756058 349.537964,178.578690 
	C353.455505,178.546860 355.081421,180.120895 356.257935,183.580048 
	C362.475708,201.861526 368.876038,220.080963 375.229034,238.316345 
	C375.821350,240.016556 376.525848,241.677689 377.582642,244.397705 
	C381.822906,232.279556 385.721893,221.167175 389.598785,210.047119 
	C392.721558,201.090195 395.949402,192.166443 398.858582,183.140274 
	C399.972443,179.684311 401.824341,178.514053 405.395294,178.585693 
	C415.520691,178.788818 425.652832,178.656876 435.732819,178.656876 
	C435.954865,180.634232 434.692200,180.717529 433.871857,181.008957 
	C429.041962,182.724747 427.381592,186.480606 427.375885,191.175110 
	C427.340332,220.340698 427.382751,249.506363 427.335114,278.671906 
	C427.325256,284.718658 430.455597,288.258331 435.866058,290.799500 
	C420.605530,290.799500 405.345001,290.799500 390.057220,290.799500 
	C390.047882,290.633667 389.948273,290.112549 390.026947,290.084106 
	C397.445190,287.400238 398.787445,281.651550 398.710510,274.519531 
	C398.448029,250.190552 398.539673,225.857559 398.544312,201.526108 
	C398.544891,198.592728 397.688660,195.704758 397.838104,192.635284 
	C386.528839,225.025940 375.219604,257.416595 363.663055,290.515594 
	C360.942596,288.025055 360.573883,285.493103 359.792877,283.245941 
	C349.845276,254.622818 340.127502,225.917206 329.815063,197.426636 
	C328.426117,193.589386 326.322205,189.952713 325.050354,185.894623 
	C323.713654,181.629654 319.530243,180.135010 315.282135,180.513031 
	C310.797943,180.912033 307.431793,183.267105 306.492371,188.044220 
	C306.238373,189.335815 306.308441,190.700241 306.308044,192.031250 
	C306.299927,220.696884 306.301880,249.362534 306.307678,278.028168 
	C306.307922,279.194153 306.253632,280.375732 306.414093,281.523560 
	C307.283844,287.745697 311.831299,290.002808 317.123322,286.736603 
	C323.157318,283.012451 325.918457,277.503052 325.897675,270.401489 
	C325.839691,250.569168 325.874512,230.736435 325.944611,210.904114 
	C325.953125,208.496704 325.432251,205.921768 327.404663,203.266113 
	C328.688751,205.492920 328.272034,207.631775 328.277924,209.611679 
	C328.335388,228.944153 328.328339,248.276825 328.338318,267.609436 
	C328.345062,280.609558 331.952148,285.558075 344.268097,289.484222 
	C344.724609,289.629730 345.139771,289.904877 346.900330,290.775085 
	C320.054749,290.775085 294.556122,290.775085 267.851532,290.775085 
	C271.572815,288.308746 275.758118,287.336182 276.393097,283.369690 
	C276.967438,279.782349 276.878418,276.070404 276.883301,272.413147 
	C276.918060,246.416687 276.901825,220.420166 276.106110,194.199661 
	C264.925262,226.099609 253.744400,257.999542 242.563553,289.899475 
	C242.015762,289.890839 241.467972,289.882172 240.920181,289.873535 
	C229.843307,257.925140 218.766434,225.976715 207.789948,194.317841 
	C205.832932,193.866425 206.531662,195.975677 205.037613,195.862747 
	C204.929214,193.914078 204.806290,191.942825 204.712326,189.970215 
	C204.432129,184.088760 200.603333,180.343567 194.827606,180.315659 
	C189.279968,180.288849 185.250046,184.235565 185.234802,190.203094 
	C185.158554,220.035004 185.203293,249.867188 185.163513,279.699219 
	C185.158691,283.310852 186.117844,286.437012 189.560791,287.984650 
	C192.788269,289.435394 195.376175,287.318207 197.683228,285.490021 
	C202.236832,281.881531 204.639023,277.071960 204.652420,271.192230 
	C204.672867,262.213654 204.657776,253.234985 205.197845,244.202499 
	C206.857864,246.245651 207.016510,248.607864 207.052185,250.955399 
	C207.145874,257.120636 207.161499,263.287109 207.199280,269.453125 
	C207.264786,280.143188 211.328354,285.698029 221.479477,288.999664 
	C222.375153,289.291016 223.228043,289.713989 223.993225,290.854980 
	C198.446075,290.854980 172.898911,290.854980 145.760834,290.854980 
	C150.076492,288.480377 153.847198,287.466125 155.091614,283.622437 
	C156.254761,280.029816 155.694519,276.344116 155.698685,272.707245 
	C155.727905,247.208710 155.671783,221.710098 155.637161,196.211502 
	C155.636139,195.456299 155.571411,194.701202 154.928482,193.859741 
	C143.718018,225.938354 132.507538,258.016968 121.297073,290.095581 
	C120.806671,290.161804 120.316277,290.228027 119.825874,290.294250 
	C108.710892,258.276611 97.595909,226.259003 86.480927,194.241379 
	C86.304092,194.288025 86.127258,194.334656 85.950424,194.381302 
	C85.950424,205.913391 85.943268,217.445496 85.952316,228.977585 
	C85.962646,242.143707 85.971062,255.309875 86.010666,268.475952 
	C86.047325,280.664062 89.550705,285.416321 101.246170,289.289490 
	C101.840157,289.486176 102.387039,289.825104 102.961365,290.100464 
	C102.745453,290.527832 102.616211,291.015259 102.481911,291.016632 
	C90.833603,291.138062 79.184921,291.230255 67.536087,291.282166 
	C66.994461,291.284576 66.122513,291.414673 66.104416,290.403778 
	C66.102058,290.271790 66.204628,290.113983 66.303146,290.010529 
	C66.413345,289.894806 66.574295,289.827362 67.056679,289.629364 
z"/>
<path fill="#000000" opacity="1.000000" stroke="none" 
	d="
M207.113480,210.335175 
	C207.039505,218.546051 207.503677,226.326935 205.841858,234.044571 
	C204.592438,224.041763 204.478073,214.033951 205.104752,203.041092 
	C207.131866,205.643860 206.993042,207.797424 207.113480,210.335175 
z"/>
</svg>